<svg xmlns="http://www.w3.org/2000/svg" width="201" height="132.13" viewBox="0 0 201 132.13">
  <g id="logo" transform="translate(-14.44 -0.996)">
    <g id="Group_25" data-name="Group 25" transform="translate(79.547 0.996)">
      <path id="Path_13" data-name="Path 13" d="M117.644,33.754V29.531a9.952,9.952,0,0,1-5.018,3.205c-5.9,1.3-7.008-3.283-12.347-4.178a7.6,7.6,0,0,0-5.14,1.105v4.09a11.252,11.252,0,1,0,22.5,0Z" transform="translate(-70.041 3.003)" fill="#c6102e"/>
      <path id="Path_14" data-name="Path 14" d="M107.369.023A36.359,36.359,0,0,0,95.653,70.255c5.217,2.023,11.617-1.9,11.617-7.494V51.3C100.483,50.193,94.5,44.324,94.5,37.228V26.053h28.551V37.228c0,7.1-5.98,12.965-12.767,14.071V62.772c0,5.56,6.367,9.517,11.551,7.516A36.362,36.362,0,0,0,107.369.023Zm22.515,23.6a4.4,4.4,0,0,1-4.4,4.4v-4.4h-4.4a4.4,4.4,0,0,1,4.4-4.4,4.45,4.45,0,0,1,2.1.531l2.531-6.345,1.415.785-3.4,5.913A4.412,4.412,0,0,1,129.885,23.621Z" transform="translate(-72.433 0.004)" fill="#c6102e"/>
    </g>
    <g id="Group_20" data-name="Group 20" transform="translate(44.49 60.821)">
      <g id="Group_18" data-name="Group 18" transform="translate(0 0.033)">
        <path id="Path_15" data-name="Path 15" d="M44.686,61.665H40.53V54.27h3.99v1.039H41.757V57.4H44.3v1.039H41.757v2.189h2.918v1.039Z" transform="translate(-40.53 -54.137)" fill="#c6102e"/>
        <path id="Path_16" data-name="Path 16" d="M47.08,61.379v-1.26a1.654,1.654,0,0,0,.409.276,3.36,3.36,0,0,0,.5.21,4.651,4.651,0,0,0,.531.133,2.565,2.565,0,0,0,.486.044,2.108,2.108,0,0,0,1.15-.254.849.849,0,0,0,.376-.752.839.839,0,0,0-.122-.453,1.343,1.343,0,0,0-.354-.354,3.952,3.952,0,0,0-.531-.309l-.652-.309a6.813,6.813,0,0,1-.7-.409,2.6,2.6,0,0,1-.564-.453,1.935,1.935,0,0,1-.376-.564,1.886,1.886,0,0,1-.133-.741,1.728,1.728,0,0,1,.232-.906,1.981,1.981,0,0,1,.619-.63,3.113,3.113,0,0,1,.873-.376,4.374,4.374,0,0,1,.995-.122,4,4,0,0,1,1.691.265v1.216a2.73,2.73,0,0,0-1.614-.453,3,3,0,0,0-.542.055,1.683,1.683,0,0,0-.486.166.925.925,0,0,0-.343.31.758.758,0,0,0-.133.453.887.887,0,0,0,.1.431,1.045,1.045,0,0,0,.3.332,2.823,2.823,0,0,0,.486.287c.188.1.409.2.663.31.254.133.5.276.73.42a3.353,3.353,0,0,1,.608.486,1.981,1.981,0,0,1,.409.6,1.774,1.774,0,0,1,.155.741,1.808,1.808,0,0,1-.232.951,1.946,1.946,0,0,1-.608.63,2.746,2.746,0,0,1-.884.354,4.666,4.666,0,0,1-1.061.111,2.354,2.354,0,0,1-.453-.033c-.177-.022-.365-.044-.553-.077a4.3,4.3,0,0,1-.542-.133,1.805,1.805,0,0,1-.409-.177Z" transform="translate(-39.84 -54.15)" fill="#c6102e"/>
        <path id="Path_17" data-name="Path 17" d="M59.311,55.309H57.189v6.356H55.962V55.309H53.84V54.27h5.471v1.039Z" transform="translate(-39.128 -54.137)" fill="#c6102e"/>
        <path id="Path_18" data-name="Path 18" d="M61.68,61.665V54.27h2.133q4.1,0,4.09,3.6a3.546,3.546,0,0,1-1.138,2.752,4.3,4.3,0,0,1-3.04,1.039Zm1.227-6.356v5.317h.984a2.48,2.48,0,0,0,2.73-2.719c0-1.724-.9-2.6-2.686-2.6H62.907Z" transform="translate(-38.302 -54.137)" fill="#c6102e"/>
      </g>
      <g id="Group_19" data-name="Group 19" transform="translate(116.026)">
        <path id="Path_19" data-name="Path 19" d="M150.142,61.675H145.5V61.1a2.066,2.066,0,0,1,.1-.652,2.711,2.711,0,0,1,.265-.575,3.431,3.431,0,0,1,.387-.508c.144-.155.309-.309.475-.464a6.31,6.31,0,0,1,.52-.431c.177-.133.343-.276.52-.42q.232-.2.431-.4a2.637,2.637,0,0,0,.332-.4,2.273,2.273,0,0,0,.221-.431,1.466,1.466,0,0,0,.077-.5,1.4,1.4,0,0,0-.088-.508.947.947,0,0,0-.254-.365.959.959,0,0,0-.387-.221,1.361,1.361,0,0,0-.486-.077,2.169,2.169,0,0,0-.917.21,3.36,3.36,0,0,0-.906.63v-1.15a5.459,5.459,0,0,1,.464-.3,2.589,2.589,0,0,1,.475-.21,2.731,2.731,0,0,1,.519-.122,4.682,4.682,0,0,1,.586-.044,2.9,2.9,0,0,1,.906.133,1.932,1.932,0,0,1,.7.387,1.667,1.667,0,0,1,.442.641,2.368,2.368,0,0,1,.155.873,2.638,2.638,0,0,1-.111.807,2.607,2.607,0,0,1-.309.663,3.046,3.046,0,0,1-.5.586c-.188.188-.409.376-.641.575-.2.166-.4.321-.6.475a5.643,5.643,0,0,0-.531.453,2.362,2.362,0,0,0-.387.442.778.778,0,0,0-.144.442v.022h3.338V61.7Z" transform="translate(-145.5 -54.115)" fill="#c6102e"/>
        <path id="Path_20" data-name="Path 20" d="M155.074,61.8a2.054,2.054,0,0,1-1.8-.94,4.81,4.81,0,0,1-.652-2.73,5.291,5.291,0,0,1,.674-2.962,2.2,2.2,0,0,1,1.945-1.006c1.625,0,2.443,1.26,2.443,3.791A5.022,5.022,0,0,1,157,60.814,2.211,2.211,0,0,1,155.074,61.8Zm.122-6.687c-.9,0-1.349.984-1.349,2.962,0,1.846.442,2.774,1.315,2.774s1.3-.94,1.3-2.819S156.046,55.111,155.2,55.111Z" transform="translate(-144.75 -54.116)" fill="#c6102e"/>
        <path id="Path_21" data-name="Path 21" d="M162.611,54.12v7.56h-1.194V55.59a4.354,4.354,0,0,1-.7.4,6.373,6.373,0,0,1-.851.287V55.258c.2-.066.387-.133.575-.21s.365-.155.553-.243.365-.188.542-.3.376-.232.575-.376h.508Z" transform="translate(-143.986 -54.12)" fill="#c6102e"/>
        <path id="Path_22" data-name="Path 22" d="M170.594,57.575a6.537,6.537,0,0,1-.243,1.912,3.59,3.59,0,0,1-.663,1.315,2.61,2.61,0,0,1-.984.763,2.987,2.987,0,0,1-1.216.243,2.607,2.607,0,0,1-.42-.022c-.144-.022-.276-.044-.409-.066a2.754,2.754,0,0,1-.354-.088q-.149-.05-.265-.1V60.46a2.961,2.961,0,0,0,.265.133,3.117,3.117,0,0,0,.343.122,3.96,3.96,0,0,0,.387.088,2.415,2.415,0,0,0,.4.033,1.9,1.9,0,0,0,.8-.166,1.491,1.491,0,0,0,.608-.508,2.4,2.4,0,0,0,.387-.829,4.5,4.5,0,0,0,.133-1.15h-.022a1.574,1.574,0,0,1-.243.309,1.531,1.531,0,0,1-.343.254,1.858,1.858,0,0,1-.431.177,1.884,1.884,0,0,1-.508.066,2.219,2.219,0,0,1-.862-.166,2.136,2.136,0,0,1-.7-.464,2.064,2.064,0,0,1-.464-.73,2.642,2.642,0,0,1-.166-.951,2.806,2.806,0,0,1,.188-1.039,2.189,2.189,0,0,1,.531-.8,2.344,2.344,0,0,1,.785-.508,2.6,2.6,0,0,1,.984-.177,2.513,2.513,0,0,1,.951.188,1.937,1.937,0,0,1,.785.6,3.189,3.189,0,0,1,.542,1.061,5.422,5.422,0,0,1,.2,1.57Zm-1.249-.785a2.16,2.16,0,0,0-.1-.674,1.768,1.768,0,0,0-.265-.52,1.086,1.086,0,0,0-.409-.332,1.148,1.148,0,0,0-.508-.122,1.183,1.183,0,0,0-.475.1,1.108,1.108,0,0,0-.387.287,1.4,1.4,0,0,0-.265.453,1.63,1.63,0,0,0-.1.586,1.775,1.775,0,0,0,.1.619,1.4,1.4,0,0,0,.265.453,1.164,1.164,0,0,0,.409.276,1.336,1.336,0,0,0,.531.1,1.109,1.109,0,0,0,.475-.1,1.563,1.563,0,0,0,.387-.254,1.177,1.177,0,0,0,.254-.387,1.138,1.138,0,0,0,.088-.475Z" transform="translate(-143.381 -54.116)" fill="#c6102e"/>
      </g>
    </g>
    <text id="THE_COCKTAIL" data-name="THE COCKTAIL" transform="translate(14.44 105.735)" fill="#fff" font-size="31" font-family="Oswald" font-weight="700" letter-spacing="0.07em"><tspan x="0" y="0">THE COCK</tspan><tspan y="0" letter-spacing="0.04em">T</tspan><tspan y="0">AIL</tspan></text>
    <text id="CLUB" transform="translate(115.919 130.126)" fill="#c6102e" font-size="11" font-family="Oswald" font-weight="500" letter-spacing="0.07em"><tspan x="-12" y="0">CLUB</tspan></text>
  </g>
</svg>
